<?xml version="1.0" encoding="UTF-8" standalone="no"?>
<!DOCTYPE svg PUBLIC "-//W3C//DTD SVG 1.1//EN" "http://www.w3.org/Graphics/SVG/1.1/DTD/svg11.dtd">
<svg width="100%" height="100%" viewBox="0 0 199 199" version="1.1" xmlns="http://www.w3.org/2000/svg" xmlns:xlink="http://www.w3.org/1999/xlink" xml:space="preserve" xmlns:serif="http://www.serif.com/" style="fill-rule:evenodd;clip-rule:evenodd;stroke-linejoin:round;stroke-miterlimit:2;">
    <g transform="matrix(0.688752,-0.185476,0,0.251562,-177.359,77.6717)">
        <path d="M446.877,352.097C414.077,410.16 407.454,326.376 374.748,359.553C368.596,365.609 366.408,385.68 369.701,405.843C371.936,419.586 374.031,432.409 374.031,432.409C407.405,385.784 412.577,467.842 446.523,426.251C452.507,419.109 454.484,398.736 451.166,378.42C448.946,364.769 446.877,352.097 446.877,352.097Z" style="fill:rgb(206,151,47);fill-rule:nonzero;stroke:rgb(206,151,47);stroke-width:0.61px;"/>
    </g>
    <g transform="matrix(0.762172,-0.205248,0,0.251562,-108.989,61.6517)">
        <path d="M212.573,154.689L212.573,233.162L225.118,233.162L225.118,154.689L212.573,154.689ZM239.519,233.162L239.519,154.689L226.973,154.689L226.973,233.162L239.519,233.162ZM193.114,283.433C193.114,283.433 201.207,333.092 201.207,422.6C201.207,491.264 195.457,539.595 182.507,539.595C167.533,539.595 164.076,486.564 164.076,424.644C164.076,307.548 181.596,245.423 181.596,245.423L181.596,179.212L144.558,179.212L144.558,245.423L149.563,245.423C151.111,245.422 152.763,248.259 153.832,252.756C154.9,257.253 155.203,262.64 154.613,266.68C149.405,300.626 142.998,341.572 142.998,418.258C142.998,547.002 160.249,603.456 182.507,603.456C204.968,603.456 223.095,544.908 223.095,411.872C223.095,384.697 221.981,362.298 220.696,342.439C220.383,337.536 220.965,333.227 222.199,331.316C223.433,329.405 225.106,330.221 226.518,333.422C228.931,338.872 230.978,343.514 230.978,343.514L236.222,284.149L202.624,223.966L193.114,283.433Z" style="fill:rgb(206,151,47);fill-rule:nonzero;stroke:rgb(206,151,47);stroke-width:0.56px;"/>
    </g>
    <g transform="matrix(0.762172,-0.205248,0,0.251562,-221.64,90.663)">
        <path d="M511.426,278.529L550.277,278.529L550.277,218.703L517.8,218.703C516.281,218.703 514.657,216.405 513.408,212.485C512.159,208.566 511.426,203.471 511.426,198.703L511.426,146.106L489.572,146.106L489.572,218.703L460.232,218.703L460.232,278.529L482.969,278.529C484.543,278.529 486.225,280.91 487.519,284.97C488.813,289.031 489.572,294.308 489.572,299.248C489.572,331.206 489.572,388.881 489.572,388.881C517.294,384.59 534.005,417.594 534.005,465.413C534.005,514.459 518.104,555.023 487.549,526.822L484.109,592.421C529.84,634.109 551.896,553.797 551.896,464.902C551.896,396.851 536.113,343.514 511.426,330.027L511.426,278.529Z" style="fill:rgb(206,151,47);fill-rule:nonzero;stroke:rgb(206,151,47);stroke-width:0.56px;"/>
    </g>
</svg>
